HIERARCHY
ROOT Hips
{
  OFFSET 13.0864 86.5717 102.43
  CHANNELS 6 Xposition Yposition Zposition Zrotation Xrotation Yrotation
  JOINT ToSpine
  {
    OFFSET -2.69724 7.43032 -0.144315
    CHANNELS 3 Zrotation Xrotation Yrotation
    JOINT Spine
    {
      OFFSET -0.0310711 10.7595 1.96963
      CHANNELS 3 Zrotation Xrotation Yrotation
      JOINT Spine1
      {
        OFFSET 13.1342 3.43533 0.764692
        CHANNELS 3 Zrotation Xrotation Yrotation
        JOINT Neck
        {
          OFFSET 29.8703 7.82586 -0.130764
          CHANNELS 3 Zrotation Xrotation Yrotation
          JOINT Head
          {
            OFFSET 9.52751 0.295786 -0.907742
            CHANNELS 3 Zrotation Xrotation Yrotation
            End Site
            {
              OFFSET 16.4037 0.713936 2.7358
            }
          }
        }
        JOINT LeftShoulder
        {
          OFFSET 27.5574 4.95586 2.47156
          CHANNELS 3 Zrotation Xrotation Yrotation
          JOINT LeftArm
          {
            OFFSET 1.20734 -0.998971 20.1238
            CHANNELS 3 Zrotation Xrotation Yrotation
            JOINT LeftForeArm
            {
              OFFSET 26.8049 -0.0536703 -0.155908
              CHANNELS 3 Zrotation Xrotation Yrotation
              JOINT LeftHand
              {
                OFFSET 26.6817 0 0.320147
                CHANNELS 3 Zrotation Xrotation Yrotation
                End Site
                {
                  OFFSET 18.6119 0 0.382219
                }
              }
            }
          }
        }
        JOINT RightShoulder
        {
          OFFSET 27.5927 4.71444 -2.65209
          CHANNELS 3 Zrotation Xrotation Yrotation
          JOINT RightArm
          {
            OFFSET 2.83739 -1.17114 -18.7564
            CHANNELS 3 Zrotation Xrotation Yrotation
            JOINT RightForeArm
            {
              OFFSET 28.839 -0.0548439 1.22491
              CHANNELS 3 Zrotation Xrotation Yrotation
              JOINT RightHand
              {
                OFFSET 26.5114 0 -0.101894
                CHANNELS 3 Zrotation Xrotation Yrotation
                End Site
                {
                  OFFSET 18.2168 0 0
                }
              }
            }
          }
        }
      }
    }
  }
  JOINT LeftUpLeg
  {
    OFFSET -4.76168 -1.9167 -10.2353
    CHANNELS 3 Zrotation Xrotation Yrotation
    JOINT LeftLeg
    {
      OFFSET 2.55951 -42.0585 -8.02213
      CHANNELS 3 Zrotation Xrotation Yrotation
      JOINT LeftFoot
      {
        OFFSET 3.16357 -42.5282 -3.95426
        CHANNELS 3 Zrotation Xrotation Yrotation
        JOINT LeftToeBase
        {
          OFFSET 0.346054 -6.02161 12.8035
          CHANNELS 3 Zrotation Xrotation Yrotation
          End Site
          {
            OFFSET 0.134235 -1.35082 5.13018
          }
        }
      }
    }
  }
  JOINT RightUpLeg
  {
    OFFSET -4.94151 -1.41743 10.6446
    CHANNELS 3 Zrotation Xrotation Yrotation
    JOINT RightLeg
    {
      OFFSET -2.56294 -42.0364 -7.94377
      CHANNELS 3 Zrotation Xrotation Yrotation
      JOINT RightFoot
      {
        OFFSET -3.0952 -42.555 -4.02241
        CHANNELS 3 Zrotation Xrotation Yrotation
        JOINT RightToeBase
        {
          OFFSET -0.0828122 -6.13587 12.8035
          CHANNELS 3 Zrotation Xrotation Yrotation
          End Site
          {
            OFFSET -0.131328 -1.35082 5.13018
          }
        }
      }
    }
  }
}
MOTION
Frames:	8
Frame Time:	0.0333333
14.4586 91.2667 -61.3131 70.0889 -36.5346 -12.2051 -70.1915 0 88.8779 105.437 73.3462 -20.2937 0.394787 22.3693 6.48043 -115.06 29.1086 157.29 176.013 73.4404 -138.686 0.809037 -13.5157 -16.3146 -71.6003 33.1184 -148.237 23.7723 -0.982158 -91.5448 0.420957 0.000572501 0.358661 -1.82842 8.49884 35.6438 -133.155 -10.4558 99.802 18.468 -4.53793 76.5363 0.58676 0.000329663 0.0646654 -44.5815 11.2222 96.8433 -4.34313 52.2888 -7.85384 -1.6871 -19.5772 -1.74512 3.75906 -10.3293 11.5081 -31.0378 -16.5589 79.8606 4.82118 57.7564 3.48767 -4.4918 -4.52941 0.904142 2.18488 -15.875 -10.7322 
14.3429 91.1795 -62.602 70.2132 -37.2672 -12.3769 -70.1915 0 88.8779 105.281 73.303 -20.3564 0.373798 22.4359 6.12547 -114.872 29.0649 157.776 175.843 73.2394 -138.528 0.8057 -13.4311 -16.6305 -71.2585 33.8777 -147.687 24.1426 -1.20868 -91.9839 0.420957 0.000572501 0.358661 -1.86959 8.36163 36.5384 -131.488 -10.7884 100.232 18.6158 -4.37179 77.1091 0.58676 0.000329663 0.0646654 -44.0642 10.8412 97.3755 -4.41835 53.1036 -7.2982 -1.65759 -20.1235 -1.79799 3.39916 -9.63755 10.9476 -31.1727 -16.0176 77.574 6.21664 61.2497 5.41428 -5.13396 -3.47888 0.925702 2.34077 -20.2294 -10.4403 
14.3359 90.8933 -63.6871 70.3377 -38.0392 -12.2883 -70.1915 0 88.8779 104.949 73.1556 -19.6881 0.69773 22.3794 5.71349 -115.592 29.5276 159.128 174.239 72.9939 -137.729 0.788667 -13.3413 -17.4734 -70.9597 34.4009 -146.875 24.5629 -1.66088 -92.9229 0.420957 0.000572501 0.358661 -1.94947 8.57632 36.873 -129.96 -11.2771 100.415 18.5932 -4.19419 77.5919 0.58676 0.000329663 0.0646654 -43.2615 10.6102 97.4087 -4.63508 54.6057 -6.65631 -1.40042 -20.4753 -1.81912 3.44413 -9.82657 11.594 -31.7446 -14.8161 76.2397 7.39278 62.9489 8.27608 -4.76651 -3.27463 0.883319 2.35049 -23.7226 -12.1623 
14.2361 90.6357 -64.4229 70.4919 -38.8938 -12.4538 -70.1915 0 88.8779 104.393 73.2889 -19.0532 1.06644 22.5831 5.24603 -116.084 29.7618 159.816 173.985 72.9166 -137.798 0.753491 -13.5277 -18.1296 -70.659 34.7736 -146.45 24.5987 -1.94594 -93.5296 0.420957 0.000572501 0.358661 -1.98386 8.68523 36.9576 -128.75 -11.6446 100.148 19.0384 -4.02987 78.3408 0.58676 0.000329663 0.0646654 -42.7378 10.201 97.4216 -4.93583 55.8959 -6.63002 -0.475014 -20.3561 -1.75938 3.58747 -10.5415 14.5862 -32.5075 -13.5306 75.8884 7.57486 63.178 8.56156 -5.39036 -5.03182 0.995201 2.39737 -22.5631 -11.1767 
14.1216 90.3581 -64.9652 70.7387 -39.2556 -12.3092 -70.1915 0 88.8779 102.935 73.4297 -17.5645 1.53208 22.6907 4.89673 -115.483 29.5549 159.536 174.493 72.9193 -137.96 0.69932 -13.9534 -18.6425 -69.9898 35.375 -146.129 24.6382 -2.09618 -93.8425 0.420957 0.000572501 0.358661 -2.01844 8.35046 38.3717 -127.406 -10.8729 100.762 18.7148 -3.72758 78.9858 0.58676 0.000329663 0.0646654 -41.9856 9.64327 96.7245 -5.21557 57.2812 -6.34099 0.73738 -20.3124 -1.6921 3.36421 -10.6152 17.3783 -33.4592 -12.7016 75.8209 6.74711 61.9025 6.99171 -6.40104 -7.77459 1.15667 2.27456 -18.8038 -7.28275 
13.9565 89.9474 -65.4509 70.8131 -39.6651 -12.0372 -70.1915 0 88.8779 102.321 73.3325 -16.7511 1.45357 22.4442 5.34724 -115.762 30.018 161.144 172.306 72.5505 -136.087 0.635501 -14.1982 -19.7608 -69.4274 35.56 -144.803 24.9076 -2.37312 -94.3782 0.420957 0.000572501 0.358661 -2.09501 8.74834 38.08 -126.684 -11.6451 100.071 18.3605 -3.48499 79.4686 0.58676 0.000329663 0.0646654 -41.2659 9.54462 96.1646 -5.2237 58.4862 -4.27952 -0.151423 -21.1991 -1.81325 3.31427 -10.1652 14.9521 -33.7402 -11.7297 76.5649 6.39962 60.7809 7.13377 -5.54121 -11.0921 1.18945 2.07018 -14.1791 -8.88807 
13.6856 89.6838 -65.6295 71.0865 -40.1691 -11.965 -70.1915 0 88.8779 101.825 73.5524 -16.5366 1.60917 22.5518 5.61066 -115.709 30.052 161.219 173.22 72.6736 -136.95 0.601344 -14.3468 -20.2733 -68.2408 35.732 -144.102 24.9795 -2.42081 -94.4644 0.420957 0.000572501 0.358661 -2.01262 8.38021 38.2125 -126.069 -12.3891 99.9769 18.7662 -3.43843 79.8334 0.58676 0.000329663 0.0646654 -40.9301 9.52531 95.9991 -5.48739 59.4181 -4.25542 0.310969 -20.6762 -1.74277 4.04609 -11.4964 16.491 -34.1319 -10.8093 77.2815 6.03264 60.1434 6.28252 -5.89887 -13.0115 1.26361 2.01515 -12.5229 -8.82399 
13.4129 89.4755 -65.7259 71.1866 -40.1665 -11.9395 -70.1915 0 88.8779 101.045 73.5594 -15.9833 1.71629 22.3383 6.11355 -116.559 30.8671 162.454 170.85 72.7263 -135.365 0.556751 -14.4347 -21.1883 -66.44 35.8081 -142.702 26.01 -2.55829 -94.5099 0.420957 0.000572501 0.358661 -1.97392 8.4111 37.6491 -125.733 -13.2276 99.5176 19.0776 -3.44896 79.9746 0.58676 0.000329663 0.0646654 -40.4297 9.34614 95.6428 -5.72995 60.1064 -4.41303 0.530302 -20.2243 -1.69446 4.39199 -12.1209 17.4563 -34.2574 -10.1092 77.7993 5.45443 59.6295 3.96731 -4.43305 -15.7292 1.34468 1.45867 -7.55482 -5.8128 
